<?xml version="1.0" encoding="UTF-8" standalone="no"?>
<svg
   xmlns:dc="http://purl.org/dc/elements/1.1/"
   xmlns:cc="http://creativecommons.org/ns#"
   xmlns:rdf="http://www.w3.org/1999/02/22-rdf-syntax-ns#"
   xmlns:svg="http://www.w3.org/2000/svg"
   xmlns="http://www.w3.org/2000/svg"
   xmlns:sodipodi="http://sodipodi.sourceforge.net/DTD/sodipodi-0.dtd"
   xmlns:inkscape="http://www.inkscape.org/namespaces/inkscape"
   width="2500"
   height="2500"
   viewBox="0 0 192.756 192.756"
   version="1.1"
   id="svg10"
   sodipodi:docname="Quebec_logo_lily.svg"
   inkscape:version="0.92.3 (2405546, 2018-03-11)">
  <metadata
     id="metadata16">
    <rdf:RDF>
      <cc:Work
         rdf:about="">
        <dc:format>image/svg+xml</dc:format>
        <dc:type
           rdf:resource="http://purl.org/dc/dcmitype/StillImage" />
      </cc:Work>
    </rdf:RDF>
  </metadata>
  <defs
     id="defs14" />
  <sodipodi:namedview
     pagecolor="#ffffff"
     bordercolor="#666666"
     borderopacity="1"
     objecttolerance="10"
     gridtolerance="10"
     guidetolerance="10"
     inkscape:pageopacity="0"
     inkscape:pageshadow="2"
     inkscape:window-width="3840"
     inkscape:window-height="2035"
     id="namedview12"
     showgrid="false"
     inkscape:zoom="0.1888"
     inkscape:cx="399.02544"
     inkscape:cy="1191.0334"
     inkscape:window-x="-13"
     inkscape:window-y="-13"
     inkscape:window-maximized="1"
     inkscape:current-layer="svg10" />
  <path
     style="clip-rule:evenodd;fill:#ffffff;fill-rule:evenodd"
     inkscape:connector-curvature="0"
     id="path4"
     d="m 142.727,75.81 c -8.162,0 -16.963,4.795 -23.543,12.826 -5.934,7.244 -12.975,20.798 -13.184,44.288 h -0.854 c 0.17,-29.004 7.24,-39.956 13.494,-49.622 4.699,-7.265 8.758,-13.539 8.758,-25.76 0,-14.828 -8.268,-28.771 -15.201,-37.856 C 104.721,9.89 97.129,3.467 97.053,3.403 L 96.378,2.835 95.702,3.403 c -0.076,0.064 -7.667,6.487 -15.144,16.283 -6.934,9.085 -15.2,23.028 -15.2,37.856 0,12.222 4.059,18.496 8.758,25.76 6.252,9.666 13.324,20.618 13.492,49.622 H 86.757 C 86.548,109.434 79.506,95.879 73.572,88.636 66.992,80.605 58.191,75.81 50.029,75.81 c -12.851,0 -23.307,10.456 -23.307,23.307 0,11.457 8.718,23.309 23.307,23.309 13.411,0 18.409,-8.801 18.409,-14.348 v -2.113 l -1.687,1.277 c -0.023,0.018 -2.339,1.744 -5.383,1.744 -3.042,0 -5.25,-2.207 -5.25,-5.248 0,-3.043 2.208,-5.25 5.25,-5.25 0.781,0 4.87,0.26 8.642,5.398 4.323,5.889 6.563,15.662 6.675,29.037 H 62.837 v 14.699 h 23.214 c -0.471,3.588 -3.343,15.287 -20.876,22.334 l -1.341,0.539 0.928,1.109 c 4.997,5.975 15.018,5.459 19,4.041 1.705,6.826 5.494,11.229 12.203,14.1 l 0.413,0.176 0.413,-0.176 c 6.707,-2.871 10.498,-7.273 12.201,-14.1 3.982,1.418 14.004,1.934 19,-4.041 l 0.928,-1.109 -1.34,-0.539 c -17.533,-7.047 -20.406,-18.746 -20.877,-22.334 h 23.215 v -14.699 h -13.85 c 0.113,-13.375 2.354,-23.148 6.676,-29.037 3.773,-5.139 7.861,-5.398 8.643,-5.398 3.043,0 5.25,2.207 5.25,5.25 0,3.041 -2.207,5.248 -5.25,5.248 -3.043,0 -5.359,-1.727 -5.383,-1.744 l -1.684,-1.275 -0.002,2.111 c 0,5.547 4.998,14.348 18.408,14.348 14.59,0 23.307,-11.852 23.307,-23.309 0,-12.851 -10.455,-23.307 -23.306,-23.307 z" />
  <path
     style="clip-rule:evenodd;fill:#095797;fill-rule:evenodd;fill-opacity:1"
     inkscape:connector-curvature="0"
     id="path6"
     d="m 142.727,76.86 c -13.018,0 -35.697,14.139 -35.697,57.115 h -2.939 c 0,-52.215 22.258,-48.295 22.258,-76.433 0,-28.137 -29.97,-53.335 -29.97,-53.335 0,0 -29.97,25.198 -29.97,53.335 0,28.138 22.258,24.218 22.258,76.433 h -2.94 C 85.727,90.998 63.048,76.86 50.03,76.86 c -13.018,0 -22.257,10.709 -22.257,22.257 0,11.549 8.818,22.258 22.257,22.258 13.439,0 17.359,-8.959 17.359,-13.297 0,0 -2.554,1.959 -6.019,1.959 -3.465,0 -6.3,-2.572 -6.3,-6.299 0,-3.729 2.835,-6.301 6.3,-6.301 3.465,0 16.378,3.359 16.378,36.537 h -13.86 v 12.6 h 23.308 c 0,0 -0.209,15.748 -21.628,24.357 5.445,6.51 17.219,4.619 18.898,3.219 1.47,7.279 5.04,11.689 11.912,14.629 6.872,-2.939 10.442,-7.35 11.911,-14.629 1.68,1.4 13.453,3.291 18.898,-3.219 -21.418,-8.609 -21.627,-24.357 -21.627,-24.357 h 23.307 v -12.6 H 115.01 c 0,-33.178 12.912,-36.537 16.377,-36.537 3.465,0 6.301,2.572 6.301,6.301 0,3.727 -2.836,6.299 -6.301,6.299 -3.465,0 -6.02,-1.959 -6.02,-1.959 0,4.338 3.92,13.297 17.359,13.297 13.439,0 22.258,-10.709 22.258,-22.258 0,-11.548 -9.24,-22.257 -22.257,-22.257 z" />
</svg>
